<mxfile host="app.diagrams.net" modified="2023-12-19T21:53:46.585Z" agent="Mozilla/5.0 (Windows NT 10.0; Win64; x64) AppleWebKit/537.36 (KHTML, like Gecko) Chrome/120.0.0.0 Safari/537.36 Edg/120.0.0.0" version="22.1.11" etag="UoV9dxuKrMSQdCLLg_3h" type="github">
  <diagram name="PÃ¡gina-1" id="SHS2GKAcliJpwxTS8eZh">
    <mxGraphModel>
      <root>
        <mxCell id="0" />
        <mxCell id="1" parent="0" />
      </root>
    </mxGraphModel>
  </diagram>
</mxfile>
